<?xml version="1.0" encoding="utf-8"?>
<!-- Generator: Adobe Illustrator 17.1.0, SVG Export Plug-In . SVG Version: 6.00 Build 0)  -->
<!DOCTYPE svg PUBLIC "-//W3C//DTD SVG 1.1//EN" "http://www.w3.org/Graphics/SVG/1.1/DTD/svg11.dtd">
<svg version="1.1" id="Layer_1" xmlns="http://www.w3.org/2000/svg" xmlns:xlink="http://www.w3.org/1999/xlink" x="0px" y="0px"
	 viewBox="0 0 400 400" enable-background="new 0 0 400 400" xml:space="preserve">
<g>
	<path fill="#990000" d="M200,378c-98.1,0-178-79.9-178-178S101.9,22,200,22s178,79.9,178,178S298.1,378,200,378z"/>
	<path fill="#FFCC00" d="M200,44c41.7,0,80.8,16.2,110.3,45.7C339.8,119.2,356,158.3,356,200s-16.2,80.8-45.7,110.3
		C280.8,339.8,241.7,356,200,356s-80.8-16.2-110.3-45.7C60.2,280.8,44,241.7,44,200s16.2-80.8,45.7-110.3S158.3,44,200,44 M200,0
		C89.5,0,0,89.5,0,200s89.5,200,200,200s200-89.5,200-200S310.5,0,200,0L200,0z"/>
</g>
<polyline fill="#990000" stroke="#FFCC00" stroke-width="44" stroke-miterlimit="10" points="200,81 200,200 261.6,261.8 "/>
</svg>
